<svg width="299" height="181" viewBox="0 0 299 181" fill="none" xmlns="http://www.w3.org/2000/svg">
<path d="M28.3938 4.53918V161.158" stroke="#ECECEC"/>
<path d="M72.7961 4.53918V161.158" stroke="#ECECEC"/>
<path d="M117.198 4.53918V161.158" stroke="#ECECEC"/>
<path d="M161.601 4.53918V161.158" stroke="#ECECEC"/>
<path d="M206.003 4.53918V161.158" stroke="#ECECEC"/>
<path d="M250.406 4.53918V161.158" stroke="#ECECEC"/>
<path d="M295.615 4.53918V161.158" stroke="#ECECEC"/>
<path d="M28.7975 161.562H295.212" stroke="#ECECEC"/>
<path d="M28.7975 109.087H295.212" stroke="#ECECEC"/>
<path d="M28.7975 57.4185H295.212" stroke="#ECECEC"/>
<path d="M28.7975 4.94287H295.212" stroke="#ECECEC"/>
<path d="M28.7975 161.562H295.212" stroke="#ECECEC"/>
<path d="M28.3938 4.53918V161.158" stroke="#ECECEC"/>
<path d="M30.2305 170.662H27.9453V177H27.0127V170.662H24.7324V169.891H30.2305V170.662ZM32.8477 177.098C32.1315 177.098 31.5488 176.863 31.0996 176.395C30.6504 175.923 30.4258 175.293 30.4258 174.505V174.339C30.4258 173.815 30.5251 173.348 30.7236 172.938C30.9255 172.524 31.2054 172.202 31.5635 171.971C31.9248 171.736 32.3154 171.619 32.7354 171.619C33.4222 171.619 33.9561 171.845 34.3369 172.298C34.7178 172.75 34.9082 173.398 34.9082 174.241V174.617H31.3291C31.3421 175.138 31.4935 175.56 31.7832 175.882C32.0762 176.201 32.4473 176.36 32.8965 176.36C33.2155 176.36 33.4857 176.295 33.707 176.165C33.9284 176.035 34.1221 175.862 34.2881 175.647L34.8398 176.077C34.3971 176.757 33.7331 177.098 32.8477 177.098ZM32.7354 172.361C32.3708 172.361 32.0648 172.495 31.8174 172.762C31.57 173.025 31.417 173.396 31.3584 173.875H34.0049V173.807C33.9788 173.348 33.8551 172.993 33.6338 172.742C33.4124 172.488 33.113 172.361 32.7354 172.361ZM37.7305 173.646L38.9023 171.717H39.957L38.2285 174.329L40.0107 177H38.9658L37.7451 175.022L36.5244 177H35.4746L37.2568 174.329L35.5283 171.717H36.5732L37.7305 173.646ZM42.1445 170.438V171.717H43.1309V172.415H42.1445V175.691C42.1445 175.903 42.1885 176.062 42.2764 176.17C42.3643 176.274 42.514 176.326 42.7256 176.326C42.8298 176.326 42.973 176.307 43.1553 176.268V177C42.9176 177.065 42.6865 177.098 42.4619 177.098C42.0583 177.098 41.7539 176.976 41.5488 176.731C41.3438 176.487 41.2412 176.141 41.2412 175.691V172.415H40.2793V171.717H41.2412V170.438H42.1445Z" fill="#A3A3A3"/>
<path d="M74.2305 170.662H71.9453V177H71.0127V170.662H68.7324V169.891H74.2305V170.662ZM76.8477 177.098C76.1315 177.098 75.5488 176.863 75.0996 176.395C74.6504 175.923 74.4258 175.293 74.4258 174.505V174.339C74.4258 173.815 74.5251 173.348 74.7236 172.938C74.9255 172.524 75.2054 172.202 75.5635 171.971C75.9248 171.736 76.3154 171.619 76.7354 171.619C77.4222 171.619 77.9561 171.845 78.3369 172.298C78.7178 172.75 78.9082 173.398 78.9082 174.241V174.617H75.3291C75.3421 175.138 75.4935 175.56 75.7832 175.882C76.0762 176.201 76.4473 176.36 76.8965 176.36C77.2155 176.36 77.4857 176.295 77.707 176.165C77.9284 176.035 78.1221 175.862 78.2881 175.647L78.8398 176.077C78.3971 176.757 77.7331 177.098 76.8477 177.098ZM76.7354 172.361C76.3708 172.361 76.0648 172.495 75.8174 172.762C75.57 173.025 75.417 173.396 75.3584 173.875H78.0049V173.807C77.9788 173.348 77.8551 172.993 77.6338 172.742C77.4124 172.488 77.113 172.361 76.7354 172.361ZM81.7305 173.646L82.9023 171.717H83.957L82.2285 174.329L84.0107 177H82.9658L81.7451 175.022L80.5244 177H79.4746L81.2568 174.329L79.5283 171.717H80.5732L81.7305 173.646ZM86.1445 170.438V171.717H87.1309V172.415H86.1445V175.691C86.1445 175.903 86.1885 176.062 86.2764 176.17C86.3643 176.274 86.514 176.326 86.7256 176.326C86.8298 176.326 86.973 176.307 87.1553 176.268V177C86.9176 177.065 86.6865 177.098 86.4619 177.098C86.0583 177.098 85.7539 176.976 85.5488 176.731C85.3438 176.487 85.2412 176.141 85.2412 175.691V172.415H84.2793V171.717H85.2412V170.438H86.1445Z" fill="#A3A3A3"/>
<path d="M119.73 170.662H117.445V177H116.513V170.662H114.232V169.891H119.73V170.662ZM122.348 177.098C121.632 177.098 121.049 176.863 120.6 176.395C120.15 175.923 119.926 175.293 119.926 174.505V174.339C119.926 173.815 120.025 173.348 120.224 172.938C120.425 172.524 120.705 172.202 121.063 171.971C121.425 171.736 121.815 171.619 122.235 171.619C122.922 171.619 123.456 171.845 123.837 172.298C124.218 172.75 124.408 173.398 124.408 174.241V174.617H120.829C120.842 175.138 120.993 175.56 121.283 175.882C121.576 176.201 121.947 176.36 122.396 176.36C122.715 176.36 122.986 176.295 123.207 176.165C123.428 176.035 123.622 175.862 123.788 175.647L124.34 176.077C123.897 176.757 123.233 177.098 122.348 177.098ZM122.235 172.361C121.871 172.361 121.565 172.495 121.317 172.762C121.07 173.025 120.917 173.396 120.858 173.875H123.505V173.807C123.479 173.348 123.355 172.993 123.134 172.742C122.912 172.488 122.613 172.361 122.235 172.361ZM127.23 173.646L128.402 171.717H129.457L127.729 174.329L129.511 177H128.466L127.245 175.022L126.024 177H124.975L126.757 174.329L125.028 171.717H126.073L127.23 173.646ZM131.645 170.438V171.717H132.631V172.415H131.645V175.691C131.645 175.903 131.688 176.062 131.776 176.17C131.864 176.274 132.014 176.326 132.226 176.326C132.33 176.326 132.473 176.307 132.655 176.268V177C132.418 177.065 132.187 177.098 131.962 177.098C131.558 177.098 131.254 176.976 131.049 176.731C130.844 176.487 130.741 176.141 130.741 175.691V172.415H129.779V171.717H130.741V170.438H131.645Z" fill="#A3A3A3"/>
<path d="M170.73 173.662H168.445V180H167.513V173.662H165.232V172.891H170.73V173.662ZM173.348 180.098C172.632 180.098 172.049 179.863 171.6 179.395C171.15 178.923 170.926 178.293 170.926 177.505V177.339C170.926 176.815 171.025 176.348 171.224 175.938C171.425 175.524 171.705 175.202 172.063 174.971C172.425 174.736 172.815 174.619 173.235 174.619C173.922 174.619 174.456 174.845 174.837 175.298C175.218 175.75 175.408 176.398 175.408 177.241V177.617H171.829C171.842 178.138 171.993 178.56 172.283 178.882C172.576 179.201 172.947 179.36 173.396 179.36C173.715 179.36 173.986 179.295 174.207 179.165C174.428 179.035 174.622 178.862 174.788 178.647L175.34 179.077C174.897 179.757 174.233 180.098 173.348 180.098ZM173.235 175.361C172.871 175.361 172.565 175.495 172.317 175.762C172.07 176.025 171.917 176.396 171.858 176.875H174.505V176.807C174.479 176.348 174.355 175.993 174.134 175.742C173.912 175.488 173.613 175.361 173.235 175.361ZM178.23 176.646L179.402 174.717H180.457L178.729 177.329L180.511 180H179.466L178.245 178.022L177.024 180H175.975L177.757 177.329L176.028 174.717H177.073L178.23 176.646ZM182.645 173.438V174.717H183.631V175.415H182.645V178.691C182.645 178.903 182.688 179.062 182.776 179.17C182.864 179.274 183.014 179.326 183.226 179.326C183.33 179.326 183.473 179.307 183.655 179.268V180C183.418 180.065 183.187 180.098 182.962 180.098C182.558 180.098 182.254 179.976 182.049 179.731C181.844 179.487 181.741 179.141 181.741 178.691V175.415H180.779V174.717H181.741V173.438H182.645Z" fill="#A3A3A3"/>
<path d="M208.73 170.662H206.445V177H205.513V170.662H203.232V169.891H208.73V170.662ZM211.348 177.098C210.632 177.098 210.049 176.863 209.6 176.395C209.15 175.923 208.926 175.293 208.926 174.505V174.339C208.926 173.815 209.025 173.348 209.224 172.938C209.425 172.524 209.705 172.202 210.063 171.971C210.425 171.736 210.815 171.619 211.235 171.619C211.922 171.619 212.456 171.845 212.837 172.298C213.218 172.75 213.408 173.398 213.408 174.241V174.617H209.829C209.842 175.138 209.993 175.56 210.283 175.882C210.576 176.201 210.947 176.36 211.396 176.36C211.715 176.36 211.986 176.295 212.207 176.165C212.428 176.035 212.622 175.862 212.788 175.647L213.34 176.077C212.897 176.757 212.233 177.098 211.348 177.098ZM211.235 172.361C210.871 172.361 210.565 172.495 210.317 172.762C210.07 173.025 209.917 173.396 209.858 173.875H212.505V173.807C212.479 173.348 212.355 172.993 212.134 172.742C211.912 172.488 211.613 172.361 211.235 172.361ZM216.23 173.646L217.402 171.717H218.457L216.729 174.329L218.511 177H217.466L216.245 175.022L215.024 177H213.975L215.757 174.329L214.028 171.717H215.073L216.23 173.646ZM220.645 170.438V171.717H221.631V172.415H220.645V175.691C220.645 175.903 220.688 176.062 220.776 176.17C220.864 176.274 221.014 176.326 221.226 176.326C221.33 176.326 221.473 176.307 221.655 176.268V177C221.418 177.065 221.187 177.098 220.962 177.098C220.558 177.098 220.254 176.976 220.049 176.731C219.844 176.487 219.741 176.141 219.741 175.691V172.415H218.779V171.717H219.741V170.438H220.645Z" fill="#A3A3A3"/>
<path d="M253.23 170.662H250.945V177H250.013V170.662H247.732V169.891H253.23V170.662ZM255.848 177.098C255.132 177.098 254.549 176.863 254.1 176.395C253.65 175.923 253.426 175.293 253.426 174.505V174.339C253.426 173.815 253.525 173.348 253.724 172.938C253.925 172.524 254.205 172.202 254.563 171.971C254.925 171.736 255.315 171.619 255.735 171.619C256.422 171.619 256.956 171.845 257.337 172.298C257.718 172.75 257.908 173.398 257.908 174.241V174.617H254.329C254.342 175.138 254.493 175.56 254.783 175.882C255.076 176.201 255.447 176.36 255.896 176.36C256.215 176.36 256.486 176.295 256.707 176.165C256.928 176.035 257.122 175.862 257.288 175.647L257.84 176.077C257.397 176.757 256.733 177.098 255.848 177.098ZM255.735 172.361C255.371 172.361 255.065 172.495 254.817 172.762C254.57 173.025 254.417 173.396 254.358 173.875H257.005V173.807C256.979 173.348 256.855 172.993 256.634 172.742C256.412 172.488 256.113 172.361 255.735 172.361ZM260.73 173.646L261.902 171.717H262.957L261.229 174.329L263.011 177H261.966L260.745 175.022L259.524 177H258.475L260.257 174.329L258.528 171.717H259.573L260.73 173.646ZM265.145 170.438V171.717H266.131V172.415H265.145V175.691C265.145 175.903 265.188 176.062 265.276 176.17C265.364 176.274 265.514 176.326 265.726 176.326C265.83 176.326 265.973 176.307 266.155 176.268V177C265.918 177.065 265.687 177.098 265.462 177.098C265.058 177.098 264.754 176.976 264.549 176.731C264.344 176.487 264.241 176.141 264.241 175.691V172.415H263.279V171.717H264.241V170.438H265.145Z" fill="#A3A3A3"/>
<path d="M280.23 170.662H277.945V177H277.013V170.662H274.732V169.891H280.23V170.662ZM282.848 177.098C282.132 177.098 281.549 176.863 281.1 176.395C280.65 175.923 280.426 175.293 280.426 174.505V174.339C280.426 173.815 280.525 173.348 280.724 172.938C280.925 172.524 281.205 172.202 281.563 171.971C281.925 171.736 282.315 171.619 282.735 171.619C283.422 171.619 283.956 171.845 284.337 172.298C284.718 172.75 284.908 173.398 284.908 174.241V174.617H281.329C281.342 175.138 281.493 175.56 281.783 175.882C282.076 176.201 282.447 176.36 282.896 176.36C283.215 176.36 283.486 176.295 283.707 176.165C283.928 176.035 284.122 175.862 284.288 175.647L284.84 176.077C284.397 176.757 283.733 177.098 282.848 177.098ZM282.735 172.361C282.371 172.361 282.065 172.495 281.817 172.762C281.57 173.025 281.417 173.396 281.358 173.875H284.005V173.807C283.979 173.348 283.855 172.993 283.634 172.742C283.412 172.488 283.113 172.361 282.735 172.361ZM287.73 173.646L288.902 171.717H289.957L288.229 174.329L290.011 177H288.966L287.745 175.022L286.524 177H285.475L287.257 174.329L285.528 171.717H286.573L287.73 173.646ZM292.145 170.438V171.717H293.131V172.415H292.145V175.691C292.145 175.903 292.188 176.062 292.276 176.17C292.364 176.274 292.514 176.326 292.726 176.326C292.83 176.326 292.973 176.307 293.155 176.268V177C292.918 177.065 292.687 177.098 292.462 177.098C292.058 177.098 291.754 176.976 291.549 176.731C291.344 176.487 291.241 176.141 291.241 175.691V172.415H290.279V171.717H291.241V170.438H292.145Z" fill="#A3A3A3"/>
<path d="M20.1579 162.282C20.1579 163.34 19.9772 164.126 19.6159 164.641C19.2545 165.155 18.6898 165.412 17.9215 165.412C17.1631 165.412 16.6015 165.161 16.237 164.66C15.8724 164.156 15.6836 163.404 15.6706 162.404V161.198C15.6706 160.153 15.8512 159.377 16.2125 158.869C16.5739 158.361 17.1403 158.107 17.9118 158.107C18.6767 158.107 19.2399 158.353 19.6012 158.845C19.9625 159.333 20.1481 160.088 20.1579 161.11V162.282ZM19.2545 161.047C19.2545 160.282 19.1471 159.725 18.9323 159.377C18.7174 159.025 18.3773 158.85 17.9118 158.85C17.4495 158.85 17.1126 159.024 16.901 159.372C16.6894 159.72 16.5804 160.256 16.5739 160.979V162.424C16.5739 163.192 16.6845 163.76 16.9059 164.128C17.1305 164.493 17.4691 164.675 17.9215 164.675C18.3675 164.675 18.6979 164.502 18.9127 164.157C19.1308 163.812 19.2448 163.269 19.2545 162.526V161.047Z" fill="#A3A3A3"/>
<path d="M10.7139 114H9.80566V107.979L7.98438 108.648V107.828L10.5723 106.856H10.7139V114ZM17.8184 110.968C17.8184 112.026 17.6377 112.812 17.2764 113.326C16.915 113.84 16.3503 114.098 15.582 114.098C14.8236 114.098 14.262 113.847 13.8975 113.346C13.5329 112.841 13.3441 112.089 13.3311 111.09V109.884C13.3311 108.839 13.5117 108.062 13.873 107.555C14.2344 107.047 14.8008 106.793 15.5723 106.793C16.3372 106.793 16.9004 107.039 17.2617 107.53C17.623 108.019 17.8086 108.774 17.8184 109.796V110.968ZM16.915 109.732C16.915 108.967 16.8076 108.411 16.5928 108.062C16.3779 107.711 16.0378 107.535 15.5723 107.535C15.11 107.535 14.7731 107.709 14.5615 108.058C14.3499 108.406 14.2409 108.941 14.2344 109.664V111.109C14.2344 111.878 14.3451 112.446 14.5664 112.813C14.791 113.178 15.1296 113.36 15.582 113.36C16.028 113.36 16.3584 113.188 16.5732 112.843C16.7913 112.498 16.9053 111.954 16.915 111.212V109.732ZM23.4336 110.968C23.4336 112.026 23.2529 112.812 22.8916 113.326C22.5303 113.84 21.9655 114.098 21.1973 114.098C20.4388 114.098 19.8773 113.847 19.5127 113.346C19.1481 112.841 18.9593 112.089 18.9463 111.09V109.884C18.9463 108.839 19.127 108.062 19.4883 107.555C19.8496 107.047 20.416 106.793 21.1875 106.793C21.9525 106.793 22.5156 107.039 22.877 107.53C23.2383 108.019 23.4238 108.774 23.4336 109.796V110.968ZM22.5303 109.732C22.5303 108.967 22.4229 108.411 22.208 108.062C21.9932 107.711 21.653 107.535 21.1875 107.535C20.7253 107.535 20.3883 107.709 20.1768 108.058C19.9652 108.406 19.8561 108.941 19.8496 109.664V111.109C19.8496 111.878 19.9603 112.446 20.1816 112.813C20.4062 113.178 20.7448 113.36 21.1973 113.36C21.6432 113.36 21.9736 113.188 22.1885 112.843C22.4066 112.498 22.5205 111.954 22.5303 111.212V109.732Z" fill="#A3A3A3"/>
<path d="M9.40332 61H4.74512V60.3506L7.20605 57.6162C7.57064 57.2028 7.82129 56.8675 7.95801 56.6104C8.09798 56.3499 8.16797 56.0814 8.16797 55.8047C8.16797 55.4336 8.05566 55.1292 7.83105 54.8916C7.60645 54.654 7.30697 54.5352 6.93262 54.5352C6.4834 54.5352 6.13346 54.6637 5.88281 54.9209C5.63542 55.1748 5.51172 55.5296 5.51172 55.9854H4.6084C4.6084 55.3311 4.81836 54.8021 5.23828 54.3984C5.66146 53.9948 6.22624 53.793 6.93262 53.793C7.59342 53.793 8.11589 53.9671 8.5 54.3154C8.88411 54.6605 9.07617 55.1211 9.07617 55.6973C9.07617 56.3971 8.63021 57.2305 7.73828 58.1973L5.83398 60.2627H9.40332V61ZM14.8184 57.9678C14.8184 59.0257 14.6377 59.8118 14.2764 60.3262C13.915 60.8405 13.3503 61.0977 12.582 61.0977C11.8236 61.0977 11.262 60.847 10.8975 60.3457C10.5329 59.8411 10.3441 59.0892 10.3311 58.0898V56.8838C10.3311 55.8389 10.5117 55.0625 10.873 54.5547C11.2344 54.0469 11.8008 53.793 12.5723 53.793C13.3372 53.793 13.9004 54.0387 14.2617 54.5303C14.623 55.0186 14.8086 55.7738 14.8184 56.7959V57.9678ZM13.915 56.7324C13.915 55.9674 13.8076 55.4108 13.5928 55.0625C13.3779 54.7109 13.0378 54.5352 12.5723 54.5352C12.11 54.5352 11.7731 54.7093 11.5615 55.0576C11.3499 55.4059 11.2409 55.9414 11.2344 56.6641V58.1094C11.2344 58.8776 11.3451 59.4456 11.5664 59.8135C11.791 60.1781 12.1296 60.3604 12.582 60.3604C13.028 60.3604 13.3584 60.1878 13.5732 59.8428C13.7913 59.4977 13.9053 58.9541 13.915 58.2119V56.7324ZM20.4336 57.9678C20.4336 59.0257 20.2529 59.8118 19.8916 60.3262C19.5303 60.8405 18.9655 61.0977 18.1973 61.0977C17.4388 61.0977 16.8773 60.847 16.5127 60.3457C16.1481 59.8411 15.9593 59.0892 15.9463 58.0898V56.8838C15.9463 55.8389 16.127 55.0625 16.4883 54.5547C16.8496 54.0469 17.416 53.793 18.1875 53.793C18.9525 53.793 19.5156 54.0387 19.877 54.5303C20.2383 55.0186 20.4238 55.7738 20.4336 56.7959V57.9678ZM19.5303 56.7324C19.5303 55.9674 19.4229 55.4108 19.208 55.0625C18.9932 54.7109 18.653 54.5352 18.1875 54.5352C17.7253 54.5352 17.3883 54.7093 17.1768 55.0576C16.9652 55.4059 16.8561 55.9414 16.8496 56.6641V58.1094C16.8496 58.8776 16.9603 59.4456 17.1816 59.8135C17.4062 60.1781 17.7448 60.3604 18.1973 60.3604C18.6432 60.3604 18.9736 60.1878 19.1885 59.8428C19.4066 59.4977 19.5205 58.9541 19.5303 58.2119V56.7324Z" fill="#A3A3A3"/>
<path d="M6.05859 5.00586H6.7373C7.16374 4.99935 7.49902 4.88704 7.74316 4.66895C7.9873 4.45085 8.10938 4.15625 8.10938 3.78516C8.10938 2.95182 7.69434 2.53516 6.86426 2.53516C6.47363 2.53516 6.16113 2.64746 5.92676 2.87207C5.69564 3.09342 5.58008 3.38802 5.58008 3.75586H4.67676C4.67676 3.19271 4.88184 2.72559 5.29199 2.35449C5.7054 1.98014 6.22949 1.79297 6.86426 1.79297C7.53483 1.79297 8.06055 1.97038 8.44141 2.3252C8.82227 2.68001 9.0127 3.17318 9.0127 3.80469C9.0127 4.11393 8.91178 4.41341 8.70996 4.70312C8.51139 4.99284 8.23958 5.20931 7.89453 5.35254C8.28516 5.47624 8.58626 5.68132 8.79785 5.96777C9.0127 6.25423 9.12012 6.60417 9.12012 7.01758C9.12012 7.6556 8.91178 8.16178 8.49512 8.53613C8.07845 8.91048 7.53646 9.09766 6.86914 9.09766C6.20182 9.09766 5.6582 8.91699 5.23828 8.55566C4.82161 8.19434 4.61328 7.71745 4.61328 7.125H5.52148C5.52148 7.49935 5.64355 7.79883 5.8877 8.02344C6.13184 8.24805 6.45898 8.36035 6.86914 8.36035C7.30534 8.36035 7.639 8.24642 7.87012 8.01855C8.10124 7.79069 8.2168 7.46354 8.2168 7.03711C8.2168 6.6237 8.08984 6.30632 7.83594 6.08496C7.58203 5.86361 7.21582 5.74967 6.7373 5.74316H6.05859V5.00586ZM14.8184 5.96777C14.8184 7.02572 14.6377 7.81185 14.2764 8.32617C13.915 8.84049 13.3503 9.09766 12.582 9.09766C11.8236 9.09766 11.262 8.84701 10.8975 8.3457C10.5329 7.84115 10.3441 7.08919 10.3311 6.08984V4.88379C10.3311 3.83887 10.5117 3.0625 10.873 2.55469C11.2344 2.04688 11.8008 1.79297 12.5723 1.79297C13.3372 1.79297 13.9004 2.03874 14.2617 2.53027C14.623 3.01855 14.8086 3.77376 14.8184 4.7959V5.96777ZM13.915 4.73242C13.915 3.96745 13.8076 3.41081 13.5928 3.0625C13.3779 2.71094 13.0378 2.53516 12.5723 2.53516C12.11 2.53516 11.7731 2.70931 11.5615 3.05762C11.3499 3.40592 11.2409 3.94141 11.2344 4.66406V6.10938C11.2344 6.8776 11.3451 7.44564 11.5664 7.81348C11.791 8.17806 12.1296 8.36035 12.582 8.36035C13.028 8.36035 13.3584 8.18783 13.5732 7.84277C13.7913 7.49772 13.9053 6.9541 13.915 6.21191V4.73242ZM20.4336 5.96777C20.4336 7.02572 20.2529 7.81185 19.8916 8.32617C19.5303 8.84049 18.9655 9.09766 18.1973 9.09766C17.4388 9.09766 16.8773 8.84701 16.5127 8.3457C16.1481 7.84115 15.9593 7.08919 15.9463 6.08984V4.88379C15.9463 3.83887 16.127 3.0625 16.4883 2.55469C16.8496 2.04688 17.416 1.79297 18.1875 1.79297C18.9525 1.79297 19.5156 2.03874 19.877 2.53027C20.2383 3.01855 20.4238 3.77376 20.4336 4.7959V5.96777ZM19.5303 4.73242C19.5303 3.96745 19.4229 3.41081 19.208 3.0625C18.9932 2.71094 18.653 2.53516 18.1875 2.53516C17.7253 2.53516 17.3883 2.70931 17.1768 3.05762C16.9652 3.40592 16.8561 3.94141 16.8496 4.66406V6.10938C16.8496 6.8776 16.9603 7.44564 17.1816 7.81348C17.4062 8.17806 17.7448 8.36035 18.1973 8.36035C18.6432 8.36035 18.9736 8.18783 19.1885 7.84277C19.4066 7.49772 19.5205 6.9541 19.5303 6.21191V4.73242Z" fill="#A3A3A3"/>
<path d="M60.5508 55.852C48.7572 50.2098 29.0508 55.852 29.0508 55.852L29.0508 146.5L295.073 146.5L295.073 67.852C295.073 67.852 273.906 75.5898 260.051 74.3515C245.64 73.0636 240.014 60.472 225.551 60.8515C211.992 61.2073 207.05 73.0316 193.551 74.3515C180.478 75.6297 173.685 68.0279 160.551 67.852C146.458 67.6634 139.052 75.966 125.051 74.3515C111.577 72.7978 106.25 57.7307 93.0508 60.8515C85.8801 62.5469 84.4166 71.0473 77.0508 70.8516C68.3457 70.6203 68.4063 59.6102 60.5508 55.852Z" fill="url(#paint0_linear_8_657)"/>
<path d="M28.6381 55.852C28.6381 55.852 48.3444 50.2098 60.1381 55.852C67.9936 59.6102 67.933 70.6203 76.6381 70.8516C84.0039 71.0473 85.4674 62.5469 92.6381 60.8515C105.838 57.7307 111.164 72.7978 124.638 74.3515C138.639 75.966 146.045 67.6634 160.138 67.852C173.272 68.0279 180.066 75.6297 193.138 74.3515C206.637 73.0316 211.579 61.2073 225.138 60.8515C239.601 60.472 245.228 73.0636 259.638 74.3515C273.494 75.5898 294.661 67.852 294.661 67.852" stroke="#FF3131"/>
<defs>
<linearGradient id="paint0_linear_8_657" x1="163.994" y1="58.0345" x2="159.77" y2="152.353" gradientUnits="userSpaceOnUse">
<stop stop-color="#FF6161"/>
<stop offset="1" stop-color="white" stop-opacity="0"/>
</linearGradient>
</defs>
</svg>
