<svg width="72" height="71" viewBox="0 0 72 71" fill="none" xmlns="http://www.w3.org/2000/svg">
<g filter="url(#filter0_b_5_142)">
<path d="M36.6595 6.38756L15.869 12.3313C8.29262 14.4973 5.1501 20.304 7.17999 28.3868L12.745 50.546C14.7749 58.6288 20.2176 61.9811 27.7939 59.8152L48.5845 53.8714C56.1608 51.7054 59.2836 45.9043 57.2537 37.8215L51.6887 15.6624C49.6588 7.57959 44.2359 4.22158 36.6595 6.38756Z" fill="url(#paint0_linear_5_142)"/>
</g>
<g opacity="0.5" filter="url(#filter1_f_5_142)">
<path d="M46.9038 35.4273L43.1284 20.1685C41.7589 14.6337 38.3314 12.152 33.8247 13.4213L18.561 17.7206C13.9805 19.0108 12.2068 22.9575 13.5762 28.4923L17.3517 43.7511C18.7433 49.3751 22.0891 51.7825 26.6697 50.4923L41.9334 46.1931C46.4401 44.9237 48.2954 41.0513 46.9038 35.4273Z" fill="#FF624D"/>
</g>
<g filter="url(#filter2_b_5_142)">
<mask id="path-3-outside-1_5_142" maskUnits="userSpaceOnUse" x="19.9255" y="15.8411" width="49" height="52" fill="black">
<rect fill="white" x="19.9255" y="15.8411" width="49" height="52"/>
<path d="M54.734 16.8411H33.2121C25.3692 16.8411 20.9255 21.5822 20.9255 29.9501V52.8909C20.9255 61.2589 25.3692 66 33.2121 66H54.734C62.5769 66 67 61.2589 67 52.8909V29.9501C67 21.5822 62.5769 16.8411 54.734 16.8411Z"/>
</mask>
<path d="M54.734 16.8411H33.2121C25.3692 16.8411 20.9255 21.5822 20.9255 29.9501V52.8909C20.9255 61.2589 25.3692 66 33.2121 66H54.734C62.5769 66 67 61.2589 67 52.8909V29.9501C67 21.5822 62.5769 16.8411 54.734 16.8411Z" fill="#FFAC95" fill-opacity="0.4"/>
<path d="M54.734 17.8411C55.2862 17.8411 55.734 17.3933 55.734 16.8411C55.734 16.2888 55.2862 15.8411 54.734 15.8411V17.8411ZM54.734 15.8411C54.1817 15.8411 53.734 16.2888 53.734 16.8411C53.734 17.3933 54.1817 17.8411 54.734 17.8411V15.8411ZM54.734 15.8411L33.2121 15.8411V17.8411H54.734V15.8411ZM33.2121 15.8411C29.0861 15.8411 25.7226 17.0937 23.3981 19.5738C21.0826 22.0443 19.9255 25.5972 19.9255 29.9501H21.9255C21.9255 25.9351 22.9903 22.9335 24.8573 20.9415C26.7154 18.959 29.4951 17.8411 33.2121 17.8411V15.8411ZM19.9255 29.9501V52.8909H21.9255V29.9501H19.9255ZM19.9255 52.8909C19.9255 57.2439 21.0826 60.7967 23.3981 63.2673C25.7226 65.7474 29.0861 67 33.2121 67V65C29.4951 65 26.7154 63.882 24.8573 61.8996C22.9903 59.9076 21.9255 56.9059 21.9255 52.8909H19.9255ZM33.2121 67H54.734V65H33.2121V67ZM54.734 67C58.86 67 62.219 65.7473 64.5385 63.2664C66.8487 60.7955 68 57.2427 68 52.8909H66C66 56.9071 64.9397 59.9088 63.0776 61.9005C61.2248 63.8821 58.4508 65 54.734 65V67ZM68 52.8909V29.9501H66V52.8909H68ZM68 29.9501C68 25.5983 66.8487 22.0455 64.5385 19.5747C62.219 17.0938 58.86 15.8411 54.734 15.8411V17.8411C58.4508 17.8411 61.2248 18.9589 63.0776 20.9406C64.9397 22.9322 66 25.9339 66 29.9501H68Z" fill="url(#paint1_linear_5_142)" mask="url(#path-3-outside-1_5_142)"/>
</g>
<g filter="url(#filter3_bd_5_142)">
<mask id="path-5-inside-2_5_142" fill="white">
<path fill-rule="evenodd" clip-rule="evenodd" d="M44.0442 26.8916C42.9999 26.8916 42.1398 27.8092 42.1398 28.9454V53.8962C42.1398 55.0105 42.9999 55.9281 44.0442 55.9281C45.1091 55.9281 45.9691 55.0105 45.9691 53.8962V28.9454C45.9691 27.8092 45.1091 26.8916 44.0442 26.8916ZM33.2935 34.9544C32.2491 34.9544 31.389 35.872 31.389 37.0081V53.8969C31.389 55.0112 32.2491 55.9289 33.2935 55.9289C34.3583 55.9289 35.2183 55.0112 35.2183 53.8969V37.0081C35.2183 35.872 34.3583 34.9544 33.2935 34.9544ZM52.7269 45.9221C52.7269 44.786 53.587 43.8684 54.6518 43.8684C55.6962 43.8684 56.5563 44.786 56.5563 45.9221V53.8968C56.5563 55.011 55.6962 55.9287 54.6314 55.9287C53.587 55.9287 52.7269 55.011 52.7269 53.8968V45.9221Z"/>
</mask>
<path fill-rule="evenodd" clip-rule="evenodd" d="M44.0442 26.8916C42.9999 26.8916 42.1398 27.8092 42.1398 28.9454V53.8962C42.1398 55.0105 42.9999 55.9281 44.0442 55.9281C45.1091 55.9281 45.9691 55.0105 45.9691 53.8962V28.9454C45.9691 27.8092 45.1091 26.8916 44.0442 26.8916ZM33.2935 34.9544C32.2491 34.9544 31.389 35.872 31.389 37.0081V53.8969C31.389 55.0112 32.2491 55.9289 33.2935 55.9289C34.3583 55.9289 35.2183 55.0112 35.2183 53.8969V37.0081C35.2183 35.872 34.3583 34.9544 33.2935 34.9544ZM52.7269 45.9221C52.7269 44.786 53.587 43.8684 54.6518 43.8684C55.6962 43.8684 56.5563 44.786 56.5563 45.9221V53.8968C56.5563 55.011 55.6962 55.9287 54.6314 55.9287C53.587 55.9287 52.7269 55.011 52.7269 53.8968V45.9221Z" fill="url(#paint2_linear_5_142)"/>
<path d="M42.5398 28.9454C42.5398 28.0025 43.2475 27.2916 44.0442 27.2916V26.4916C42.7523 26.4916 41.7398 27.616 41.7398 28.9454H42.5398ZM42.5398 53.8962V28.9454H41.7398V53.8962H42.5398ZM44.0442 55.5281C43.2448 55.5281 42.5398 54.8144 42.5398 53.8962H41.7398C41.7398 55.2066 42.7549 56.3281 44.0442 56.3281V55.5281ZM45.5691 53.8962C45.5691 54.8115 44.8668 55.5281 44.0442 55.5281V56.3281C45.3513 56.3281 46.3691 55.2095 46.3691 53.8962H45.5691ZM45.5691 28.9454V53.8962H46.3691V28.9454H45.5691ZM44.0442 27.2916C44.8641 27.2916 45.5691 28.0053 45.5691 28.9454H46.3691C46.3691 27.6131 45.354 26.4916 44.0442 26.4916V27.2916ZM31.789 37.0081C31.789 36.0652 32.4967 35.3544 33.2935 35.3544V34.5544C32.0015 34.5544 30.989 35.6788 30.989 37.0081H31.789ZM31.789 53.8969V37.0081H30.989V53.8969H31.789ZM33.2935 55.5289C32.494 55.5289 31.789 54.8151 31.789 53.8969H30.989C30.989 55.2073 32.0042 56.3289 33.2935 56.3289V55.5289ZM34.8183 53.8969C34.8183 54.8123 34.116 55.5289 33.2935 55.5289V56.3289C34.6005 56.3289 35.6183 55.2102 35.6183 53.8969H34.8183ZM34.8183 37.0081V53.8969H35.6183V37.0081H34.8183ZM33.2935 35.3544C34.1133 35.3544 34.8183 36.0681 34.8183 37.0081H35.6183C35.6183 35.6759 34.6032 34.5544 33.2935 34.5544V35.3544ZM54.6518 43.4684C53.3421 43.4684 52.3269 44.5899 52.3269 45.9221H53.1269C53.1269 44.9821 53.8319 44.2684 54.6518 44.2684V43.4684ZM56.9563 45.9221C56.9563 44.5928 55.9438 43.4684 54.6518 43.4684V44.2684C55.4486 44.2684 56.1563 44.9792 56.1563 45.9221H56.9563ZM56.9563 53.8968V45.9221H56.1563V53.8968H56.9563ZM54.6314 56.3287C55.9384 56.3287 56.9563 55.21 56.9563 53.8968H56.1563C56.1563 54.8121 55.454 55.5287 54.6314 55.5287V56.3287ZM52.3269 53.8968C52.3269 55.2071 53.3421 56.3287 54.6314 56.3287V55.5287C53.8319 55.5287 53.1269 54.8149 53.1269 53.8968H52.3269ZM52.3269 45.9221V53.8968H53.1269V45.9221H52.3269Z" fill="url(#paint3_linear_5_142)" mask="url(#path-5-inside-2_5_142)"/>
</g>
<defs>
<filter id="filter0_b_5_142" x="-6.42322" y="-7.25562" width="77.2821" height="80.7145" filterUnits="userSpaceOnUse" color-interpolation-filters="sRGB">
<feFlood flood-opacity="0" result="BackgroundImageFix"/>
<feGaussianBlur in="BackgroundImage" stdDeviation="6.5"/>
<feComposite in2="SourceAlpha" operator="in" result="effect1_backgroundBlur_5_142"/>
<feBlend mode="normal" in="SourceGraphic" in2="effect1_backgroundBlur_5_142" result="shape"/>
</filter>
<filter id="filter1_f_5_142" x="0.125244" y="0.0957031" width="60.2319" height="63.7368" filterUnits="userSpaceOnUse" color-interpolation-filters="sRGB">
<feFlood flood-opacity="0" result="BackgroundImageFix"/>
<feBlend mode="normal" in="SourceGraphic" in2="BackgroundImageFix" result="shape"/>
<feGaussianBlur stdDeviation="6.5" result="effect1_foregroundBlur_5_142"/>
</filter>
<filter id="filter2_b_5_142" x="4.92554" y="0.841064" width="78.0745" height="81.1589" filterUnits="userSpaceOnUse" color-interpolation-filters="sRGB">
<feFlood flood-opacity="0" result="BackgroundImageFix"/>
<feGaussianBlur in="BackgroundImage" stdDeviation="7.5"/>
<feComposite in2="SourceAlpha" operator="in" result="effect1_backgroundBlur_5_142"/>
<feBlend mode="normal" in="SourceGraphic" in2="effect1_backgroundBlur_5_142" result="shape"/>
</filter>
<filter id="filter3_bd_5_142" x="16.389" y="11.8916" width="55.1672" height="59.0372" filterUnits="userSpaceOnUse" color-interpolation-filters="sRGB">
<feFlood flood-opacity="0" result="BackgroundImageFix"/>
<feGaussianBlur in="BackgroundImage" stdDeviation="7.5"/>
<feComposite in2="SourceAlpha" operator="in" result="effect1_backgroundBlur_5_142"/>
<feColorMatrix in="SourceAlpha" type="matrix" values="0 0 0 0 0 0 0 0 0 0 0 0 0 0 0 0 0 0 127 0" result="hardAlpha"/>
<feOffset dx="5" dy="5"/>
<feGaussianBlur stdDeviation="5"/>
<feColorMatrix type="matrix" values="0 0 0 0 1 0 0 0 0 0.447059 0 0 0 0 0.368627 0 0 0 0.5 0"/>
<feBlend mode="normal" in2="effect1_backgroundBlur_5_142" result="effect2_dropShadow_5_142"/>
<feBlend mode="normal" in="SourceGraphic" in2="effect2_dropShadow_5_142" result="shape"/>
</filter>
<linearGradient id="paint0_linear_5_142" x1="36.2921" y1="35.3471" x2="0.40745" y2="64.5141" gradientUnits="userSpaceOnUse">
<stop stop-color="#FFA78F"/>
<stop offset="1" stop-color="#F23E2C"/>
</linearGradient>
<linearGradient id="paint1_linear_5_142" x1="28.2598" y1="22.5681" x2="59.9848" y2="59.395" gradientUnits="userSpaceOnUse">
<stop stop-color="white" stop-opacity="0.25"/>
<stop offset="1" stop-color="white" stop-opacity="0"/>
</linearGradient>
<linearGradient id="paint2_linear_5_142" x1="24.8745" y1="48.4436" x2="37.9487" y2="73.6174" gradientUnits="userSpaceOnUse">
<stop stop-color="white"/>
<stop offset="1" stop-color="white" stop-opacity="0.2"/>
</linearGradient>
<linearGradient id="paint3_linear_5_142" x1="35.3952" y1="30.2745" x2="54.2959" y2="50.5634" gradientUnits="userSpaceOnUse">
<stop stop-color="white" stop-opacity="0.25"/>
<stop offset="1" stop-color="white" stop-opacity="0"/>
</linearGradient>
</defs>
</svg>
