<svg width="72" height="72" viewBox="0 0 72 72" fill="none" xmlns="http://www.w3.org/2000/svg">
<path d="M55.1251 35.9998C55.1251 32.4326 54.1423 29.0909 52.4348 26.2297V14.0927H64.5718C69.3889 20.3487 72 27.9733 72 35.9998C72 44.0264 69.3889 51.6509 64.5718 57.907H52.4348V45.77C54.1423 42.9087 55.1251 39.567 55.1251 35.9998Z" fill="#FBBD00"/>
<path d="M36.0003 55.1247L44.4377 63.5622L36.0003 71.9997C27.9736 71.9997 20.3492 69.3885 14.0931 64.5715V52.4474H26.2172C29.1035 54.161 32.4592 55.1247 36.0003 55.1247Z" fill="#0F9D58"/>
<path d="M52.4343 45.7704L64.5713 57.9074C63.6176 59.146 62.5791 60.3322 61.4553 61.456C54.6559 68.2554 45.6156 72.0001 35.9997 72.0001V55.1251C42.978 55.1251 49.0942 51.3677 52.4343 45.7704Z" fill="#31AA52"/>
<path d="M-6.86646e-05 35.9998C-6.86646e-05 33.8096 0.198208 31.6153 0.589428 29.4781L0.905972 27.7485H35.9998V44.6235H18.9207C20.5792 47.9226 23.1293 50.6143 26.2168 52.4475L14.0927 64.5716C12.8541 63.6179 11.668 62.5793 10.5441 61.4556C3.74461 54.656 -6.86646e-05 45.6157 -6.86646e-05 35.9998Z" fill="#3C79E6"/>
<path d="M22.4769 22.4764L20.9854 23.9679L9.05301 12.0356L10.5445 10.5442C17.3439 3.74469 26.3843 0 36.0003 0L44.4377 8.43746L36.0003 16.8749C30.892 16.8749 26.0892 18.8642 22.4769 22.4764Z" fill="#CF2D48"/>
<path d="M35.9995 16.8749V0C45.6154 0 54.6557 3.74469 61.4553 10.544C62.5791 11.6677 63.6176 12.8539 64.5713 14.0927L52.4343 26.2297C49.094 20.6324 42.9779 16.8749 35.9995 16.8749Z" fill="#EB4132"/>
</svg>
