<svg width="110" height="27" viewBox="0 0 110 27" fill="none" xmlns="http://www.w3.org/2000/svg">
<path d="M53.7563 18.0107V20H44.3638V5.20361H53.7563V7.18262H46.6606V11.5098H53.377V13.417H46.6606V18.0107H53.7563ZM62.667 14.9961H55.9404V12.9966H62.667V14.9961ZM64.9536 20V9.21289H67.0659V11.0278H67.1172C67.3633 10.4194 67.7563 9.93408 68.2964 9.57178C68.8364 9.20947 69.4653 9.02832 70.1831 9.02832C70.9282 9.02832 71.5605 9.21289 72.0801 9.58203C72.6064 9.95117 72.979 10.4707 73.1978 11.1406H73.249C73.5293 10.4844 73.9668 9.96826 74.5615 9.59229C75.1631 9.21631 75.8467 9.02832 76.6123 9.02832C77.6787 9.02832 78.5332 9.35303 79.1758 10.0024C79.8184 10.6519 80.1396 11.5132 80.1396 12.5864V20H77.9146V13.1196C77.9146 12.4224 77.7334 11.8823 77.3711 11.4995C77.0156 11.1167 76.5098 10.9253 75.8535 10.9253C75.1973 10.9253 74.6606 11.144 74.2437 11.5815C73.8335 12.019 73.6284 12.5796 73.6284 13.2632V20H71.4546V12.9556C71.4546 12.3335 71.27 11.8413 70.9009 11.479C70.5317 11.1099 70.0361 10.9253 69.4141 10.9253C68.7578 10.9253 68.2178 11.1543 67.7939 11.6123C67.377 12.0635 67.1685 12.6377 67.1685 13.335V20H64.9536ZM86.0562 18.4312C86.8354 18.4312 87.4883 18.1953 88.0146 17.7236C88.5479 17.2451 88.8145 16.6572 88.8145 15.96V15.1089L86.1587 15.2729C85.4956 15.3208 84.9829 15.4849 84.6206 15.7651C84.2651 16.0386 84.0874 16.4077 84.0874 16.8726C84.0874 17.3442 84.2651 17.7236 84.6206 18.0107C84.9829 18.291 85.4614 18.4312 86.0562 18.4312ZM85.4409 20.1846C84.3813 20.1846 83.5166 19.8838 82.8467 19.2822C82.1836 18.6807 81.8521 17.8979 81.8521 16.9341C81.8521 15.9907 82.2007 15.2422 82.8979 14.6885C83.5952 14.1279 84.583 13.8135 85.8613 13.7451L88.8145 13.5708V12.7402C88.8145 12.1387 88.623 11.6704 88.2402 11.3354C87.8574 10.9937 87.3276 10.8228 86.6509 10.8228C86.022 10.8228 85.5093 10.9629 85.1128 11.2432C84.7231 11.5234 84.4771 11.9097 84.3745 12.4019H82.2827C82.3442 11.4038 82.7749 10.5903 83.5747 9.96143C84.3745 9.33252 85.4272 9.01807 86.7329 9.01807C88.0386 9.01807 89.0776 9.33936 89.8501 9.98193C90.6294 10.6245 91.019 11.4858 91.019 12.5659V20H88.8965V18.2261H88.8452C88.5376 18.8208 88.0693 19.2959 87.4404 19.6514C86.8184 20.0068 86.1519 20.1846 85.4409 20.1846ZM93.2441 20V9.21289H95.459V20H93.2441ZM95.2642 7.26465C95.0112 7.51074 94.707 7.63379 94.3516 7.63379C93.9961 7.63379 93.6919 7.51074 93.439 7.26465C93.1929 7.01855 93.0698 6.72119 93.0698 6.37256C93.0698 6.01709 93.1929 5.71631 93.439 5.47021C93.6919 5.22412 93.9961 5.10107 94.3516 5.10107C94.7139 5.10107 95.0181 5.22412 95.2642 5.47021C95.5171 5.71631 95.6436 6.01709 95.6436 6.37256C95.6436 6.72119 95.5171 7.01855 95.2642 7.26465ZM97.8071 20V5.20361H100.022V20H97.8071Z" fill="#747474"/>
<path d="M23.625 5.0625H3.375C2.92745 5.0625 2.49822 5.24029 2.18176 5.55676C1.86529 5.87322 1.6875 6.30245 1.6875 6.75V20.25C1.6875 20.6976 1.86529 21.1268 2.18176 21.4432C2.49822 21.7597 2.92745 21.9375 3.375 21.9375H23.625C24.0726 21.9375 24.5018 21.7597 24.8182 21.4432C25.1347 21.1268 25.3125 20.6976 25.3125 20.25V6.75C25.3125 6.30245 25.1347 5.87322 24.8182 5.55676C24.5018 5.24029 24.0726 5.0625 23.625 5.0625ZM21.7687 6.75L13.5 12.4706L5.23125 6.75H21.7687ZM3.375 20.25V7.51781L13.0191 14.1919C13.1603 14.2899 13.3281 14.3424 13.5 14.3424C13.6719 14.3424 13.8397 14.2899 13.9809 14.1919L23.625 7.51781V20.25H3.375Z" fill="#747474"/>
</svg>
