<svg width="314" height="48" viewBox="0 0 314 48" fill="none" xmlns="http://www.w3.org/2000/svg">
<rect width="314" height="48" fill="#3C5A99"/>
<path d="M110.096 37.4955V25.2015H114.243L114.86 20.388H110.096V17.322C110.096 15.933 110.483 14.982 112.476 14.982H115.002V10.6905C113.773 10.5588 112.538 10.4952 111.302 10.5C107.636 10.5 105.119 12.738 105.119 16.8465V20.379H100.998V25.1925H105.128V37.4955H110.096Z" fill="white"/>
<path d="M135.661 32H133.364V17.2036H142.603V19.1826H135.661V23.8687H142.018V25.8066H135.661V32ZM147.473 30.4312C148.252 30.4312 148.905 30.1953 149.432 29.7236C149.965 29.2451 150.231 28.6572 150.231 27.96V27.1089L147.576 27.2729C146.913 27.3208 146.4 27.4849 146.038 27.7651C145.682 28.0386 145.504 28.4077 145.504 28.8726C145.504 29.3442 145.682 29.7236 146.038 30.0107C146.4 30.291 146.878 30.4312 147.473 30.4312ZM146.858 32.1846C145.798 32.1846 144.934 31.8838 144.264 31.2822C143.601 30.6807 143.269 29.8979 143.269 28.9341C143.269 27.9907 143.618 27.2422 144.315 26.6885C145.012 26.1279 146 25.8135 147.278 25.7451L150.231 25.5708V24.7402C150.231 24.1387 150.04 23.6704 149.657 23.3354C149.274 22.9937 148.745 22.8228 148.068 22.8228C147.439 22.8228 146.926 22.9629 146.53 23.2432C146.14 23.5234 145.894 23.9097 145.792 24.4019H143.7C143.761 23.4038 144.192 22.5903 144.992 21.9614C145.792 21.3325 146.844 21.0181 148.15 21.0181C149.456 21.0181 150.495 21.3394 151.267 21.9819C152.046 22.6245 152.436 23.4858 152.436 24.5659V32H150.313V30.2261H150.262C149.955 30.8208 149.486 31.2959 148.857 31.6514C148.235 32.0068 147.569 32.1846 146.858 32.1846ZM163.849 24.9248H161.736C161.62 24.3164 161.34 23.8208 160.896 23.438C160.458 23.0552 159.894 22.8638 159.204 22.8638C158.342 22.8638 157.652 23.2021 157.132 23.8789C156.62 24.5488 156.363 25.458 156.363 26.6064C156.363 27.7754 156.62 28.6914 157.132 29.3545C157.652 30.0176 158.349 30.3491 159.224 30.3491C159.901 30.3491 160.455 30.1748 160.885 29.8262C161.323 29.4707 161.606 28.9785 161.736 28.3496H163.869C163.753 29.5049 163.268 30.438 162.413 31.1489C161.565 31.853 160.496 32.2051 159.204 32.2051C157.652 32.2051 156.415 31.7061 155.492 30.708C154.569 29.7031 154.107 28.3359 154.107 26.6064C154.107 24.8975 154.569 23.5405 155.492 22.5356C156.415 21.5239 157.645 21.0181 159.183 21.0181C160.523 21.0181 161.61 21.394 162.444 22.146C163.278 22.8911 163.746 23.8174 163.849 24.9248ZM171.826 23.5815C171.341 23.062 170.715 22.8022 169.95 22.8022C169.184 22.8022 168.548 23.0654 168.042 23.5918C167.537 24.1113 167.256 24.7847 167.202 25.6118H172.595C172.568 24.7778 172.312 24.1011 171.826 23.5815ZM172.585 28.8315H174.687C174.53 29.8228 174.024 30.6328 173.169 31.2617C172.315 31.8906 171.272 32.2051 170.042 32.2051C168.463 32.2051 167.219 31.7095 166.31 30.7183C165.407 29.7202 164.956 28.3667 164.956 26.6577C164.956 24.9624 165.407 23.5986 166.31 22.5664C167.219 21.5342 168.432 21.0181 169.95 21.0181C171.44 21.0181 172.623 21.5068 173.498 22.4844C174.373 23.4551 174.81 24.7607 174.81 26.4014V27.1602H167.191V27.2935C167.191 28.2368 167.455 28.9922 167.981 29.5596C168.507 30.127 169.211 30.4106 170.093 30.4106C170.715 30.4106 171.249 30.2671 171.693 29.98C172.137 29.6929 172.435 29.3101 172.585 28.8315ZM182.275 32.1846C181.496 32.1846 180.809 32.0068 180.214 31.6514C179.619 31.2959 179.151 30.8003 178.809 30.1646H178.768V32H176.615V17.2036H178.83V23.0483H178.881C179.209 22.4194 179.667 21.9272 180.255 21.5718C180.85 21.2163 181.526 21.0386 182.285 21.0386C183.646 21.0386 184.732 21.541 185.546 22.5459C186.366 23.5508 186.776 24.9043 186.776 26.6064C186.776 28.3154 186.37 29.6724 185.556 30.6772C184.743 31.6821 183.649 32.1846 182.275 32.1846ZM181.68 22.9048C180.833 22.9048 180.142 23.2466 179.609 23.9302C179.083 24.6069 178.819 25.499 178.819 26.6064C178.819 27.7207 179.083 28.6162 179.609 29.293C180.142 29.9697 180.833 30.3081 181.68 30.3081C182.548 30.3081 183.235 29.9766 183.741 29.3135C184.247 28.6504 184.5 27.748 184.5 26.6064C184.5 25.4717 184.247 24.5728 183.741 23.9097C183.235 23.2397 182.548 22.9048 181.68 22.9048ZM196.866 30.708C195.937 31.7061 194.696 32.2051 193.144 32.2051C191.592 32.2051 190.352 31.7061 189.422 30.708C188.492 29.7031 188.027 28.3359 188.027 26.6064C188.027 24.8838 188.492 23.5234 189.422 22.5254C190.352 21.5205 191.592 21.0181 193.144 21.0181C194.696 21.0181 195.937 21.5205 196.866 22.5254C197.796 23.5234 198.261 24.8838 198.261 26.6064C198.261 28.3359 197.796 29.7031 196.866 30.708ZM193.144 30.3799C194.026 30.3799 194.723 30.0483 195.236 29.3853C195.749 28.7222 196.005 27.7959 196.005 26.6064C196.005 25.4238 195.745 24.501 195.226 23.8379C194.713 23.1748 194.019 22.8433 193.144 22.8433C192.269 22.8433 191.572 23.1748 191.052 23.8379C190.54 24.501 190.283 25.4238 190.283 26.6064C190.283 27.7959 190.54 28.7222 191.052 29.3853C191.572 30.0483 192.269 30.3799 193.144 30.3799ZM208.33 30.708C207.4 31.7061 206.16 32.2051 204.608 32.2051C203.056 32.2051 201.815 31.7061 200.886 30.708C199.956 29.7031 199.491 28.3359 199.491 26.6064C199.491 24.8838 199.956 23.5234 200.886 22.5254C201.815 21.5205 203.056 21.0181 204.608 21.0181C206.16 21.0181 207.4 21.5205 208.33 22.5254C209.26 23.5234 209.725 24.8838 209.725 26.6064C209.725 28.3359 209.26 29.7031 208.33 30.708ZM204.608 30.3799C205.49 30.3799 206.187 30.0483 206.7 29.3853C207.212 28.7222 207.469 27.7959 207.469 26.6064C207.469 25.4238 207.209 24.501 206.689 23.8379C206.177 23.1748 205.483 22.8433 204.608 22.8433C203.733 22.8433 203.036 23.1748 202.516 23.8379C202.003 24.501 201.747 25.4238 201.747 26.6064C201.747 27.7959 202.003 28.7222 202.516 29.3853C203.036 30.0483 203.733 30.3799 204.608 30.3799ZM213.754 25.8374L218.112 21.2129H220.717L216.246 25.8579L220.891 32H218.317L214.657 27.2114L213.734 28.124V32H211.519V17.2036H213.734V25.8374H213.754Z" fill="white"/>
</svg>
