<svg width="62" height="63" viewBox="0 0 62 63" fill="none" xmlns="http://www.w3.org/2000/svg">
<path d="M54.0258 8.51417L36.6433 3.73999C30.3382 2.00827 25.6779 4.78417 23.9829 11.2683L18.2421 33.2292C16.5193 39.8196 19.2234 44.5271 25.5285 46.2588L42.9111 51.033C49.3178 52.7926 53.8521 50.0732 55.5749 43.4828L61.3157 21.5219C63.0107 15.0378 60.4326 10.2738 54.0258 8.51417Z" fill="url(#paint0_linear_28_27)"/>
<g opacity="0.5" filter="url(#filter0_f_28_27)">
<path d="M49.5199 14.4812L37.6336 11.2166C33.3222 10.0325 30.1355 11.9306 28.9764 16.3645L25.0509 31.3814C23.8728 35.888 25.7219 39.1069 30.0333 40.2911L41.9195 43.5557C46.3005 44.7589 49.4011 42.8994 50.5791 38.3929L54.5047 23.3759C55.6637 18.9421 53.9008 15.6845 49.5199 14.4812Z" fill="#F86652"/>
</g>
<g filter="url(#filter1_b_28_27)">
<mask id="path-3-outside-1_28_27" maskUnits="userSpaceOnUse" x="5.96046e-08" y="7.35474" width="52" height="53" fill="black">
<rect fill="white" x="5.96046e-08" y="7.35474" width="52" height="53"/>
<path fill-rule="evenodd" clip-rule="evenodd" d="M1.00011 33.5479V43.8799C0.999628 45.0013 1.08778 46.121 1.26371 47.2279C1.54038 49.1841 2.19768 51.0637 3.19675 52.7556C3.65186 53.5722 4.20535 54.3271 4.84423 55.0026C7.78068 57.7554 11.6739 59.1881 15.6517 58.9799H35.729C39.7004 59.1896 43.5874 57.7563 46.5145 55.0026C47.1611 54.3284 47.722 53.5734 48.1839 52.7556C49.189 51.0625 49.8606 49.1847 50.1609 47.2279C50.3186 46.1191 50.3994 45.0003 50.4026 43.8799V30.5775C50.4776 28.0305 50.1133 25.49 49.3262 23.0724C48.9262 21.8962 48.3153 20.8065 47.525 19.8592C47.2765 19.56 47.0047 19.282 46.7122 19.0278C44.1729 16.9806 40.9734 15.9859 37.7499 16.2415H30.3439C28.5905 16.2065 26.9366 15.3874 25.822 13.9955L23.4277 10.6025C22.2991 9.1565 20.5794 8.32674 18.7708 8.35546H13.6307C4.4048 8.35546 1 13.9056 1 23.3431V33.5446C0.999991 33.5457 1.00003 33.5468 1.00011 33.5479Z"/>
</mask>
<path fill-rule="evenodd" clip-rule="evenodd" d="M1.00011 33.5479V43.8799C0.999628 45.0013 1.08778 46.121 1.26371 47.2279C1.54038 49.1841 2.19768 51.0637 3.19675 52.7556C3.65186 53.5722 4.20535 54.3271 4.84423 55.0026C7.78068 57.7554 11.6739 59.1881 15.6517 58.9799H35.729C39.7004 59.1896 43.5874 57.7563 46.5145 55.0026C47.1611 54.3284 47.722 53.5734 48.1839 52.7556C49.189 51.0625 49.8606 49.1847 50.1609 47.2279C50.3186 46.1191 50.3994 45.0003 50.4026 43.8799V30.5775C50.4776 28.0305 50.1133 25.49 49.3262 23.0724C48.9262 21.8962 48.3153 20.8065 47.525 19.8592C47.2765 19.56 47.0047 19.282 46.7122 19.0278C44.1729 16.9806 40.9734 15.9859 37.7499 16.2415H30.3439C28.5905 16.2065 26.9366 15.3874 25.822 13.9955L23.4277 10.6025C22.2991 9.1565 20.5794 8.32674 18.7708 8.35546H13.6307C4.4048 8.35546 1 13.9056 1 23.3431V33.5446C0.999991 33.5457 1.00003 33.5468 1.00011 33.5479Z" fill="#FFAC95" fill-opacity="0.4"/>
<path d="M1.00011 33.5479H2.00011C2.00011 33.5228 1.99917 33.4977 1.99728 33.4727L1.00011 33.5479ZM1.00011 43.8799L2.00011 43.8803V43.8799H1.00011ZM1.26371 47.2279L2.25385 47.0879C2.25305 47.0822 2.25221 47.0766 2.25131 47.071L1.26371 47.2279ZM3.19675 52.7556L4.07024 52.2688C4.06619 52.2615 4.06205 52.2543 4.05783 52.2471L3.19675 52.7556ZM4.84423 55.0026L4.11768 55.6897C4.13146 55.7043 4.14568 55.7185 4.16031 55.7322L4.84423 55.0026ZM15.6517 58.9799V57.9799C15.6343 57.9799 15.6168 57.9803 15.5994 57.9812L15.6517 58.9799ZM35.729 58.9799L35.7817 57.9813C35.7642 57.9803 35.7466 57.9799 35.729 57.9799V58.9799ZM46.5145 55.0026L47.1997 55.731C47.2122 55.7192 47.2244 55.7072 47.2363 55.6948L46.5145 55.0026ZM48.1839 52.7556L47.324 52.2452C47.3204 52.2513 47.3168 52.2575 47.3132 52.2638L48.1839 52.7556ZM50.1609 47.2279L51.1494 47.3797L51.151 47.3688L50.1609 47.2279ZM50.4026 43.8799L51.4026 43.8827V43.8799H50.4026ZM50.4026 30.5775L49.403 30.548C49.4027 30.5578 49.4026 30.5677 49.4026 30.5775H50.4026ZM49.3262 23.0724L50.2772 22.7628L50.273 22.7505L49.3262 23.0724ZM47.525 19.8592L46.7557 20.4981L46.7571 20.4998L47.525 19.8592ZM46.7122 19.0278L47.3682 18.273C47.3589 18.2649 47.3494 18.257 47.3398 18.2493L46.7122 19.0278ZM37.7499 16.2415V17.2415C37.7763 17.2415 37.8026 17.2404 37.8289 17.2383L37.7499 16.2415ZM30.3439 16.2415L30.3239 17.2413C30.3306 17.2414 30.3372 17.2415 30.3439 17.2415V16.2415ZM25.822 13.9955L25.005 14.5721C25.0167 14.5886 25.0288 14.6048 25.0415 14.6205L25.822 13.9955ZM23.4277 10.6025L24.2448 10.0259C24.2355 10.0128 24.2259 9.99987 24.216 9.9872L23.4277 10.6025ZM18.7708 8.35546V9.35546C18.7761 9.35546 18.7814 9.35542 18.7867 9.35533L18.7708 8.35546ZM1 33.5446L2 33.5548V33.5446H1ZM0.000109255 33.5479V43.8799H2.00011V33.5479H0.000109255ZM0.000109375 43.8794C-0.000393927 45.0536 0.0918986 46.2259 0.276101 47.3849L2.25131 47.071C2.08366 46.0161 1.99965 44.9491 2.00011 43.8803L0.000109375 43.8794ZM0.27356 47.368C0.56853 49.4535 1.26942 51.4584 2.33567 53.2641L4.05783 52.2471C3.12595 50.669 2.51223 48.9147 2.25385 47.0879L0.27356 47.368ZM2.32326 53.2424C2.81862 54.1312 3.42137 54.9535 4.11768 55.6897L5.57079 54.3155C4.98932 53.7007 4.4851 53.0131 4.07024 52.2688L2.32326 53.2424ZM4.16031 55.7322C7.29297 58.6689 11.4512 60.2011 15.704 59.9785L15.5994 57.9812C11.8966 58.1751 8.2684 56.8419 5.52815 54.2731L4.16031 55.7322ZM15.6517 59.9799H35.729V57.9799H15.6517V59.9799ZM35.6762 59.9785C39.9235 60.2028 44.0762 58.6694 47.1997 55.731L45.8293 54.2743C43.0986 56.8431 39.4774 58.1765 35.7817 57.9813L35.6762 59.9785ZM47.2363 55.6948C47.941 54.9599 48.5519 54.1376 49.0547 53.2474L47.3132 52.2638C46.8922 53.0093 46.3812 53.6969 45.7928 54.3105L47.2363 55.6948ZM49.0439 53.266C50.1147 51.4621 50.8296 49.4624 51.1494 47.3797L49.1725 47.0762C48.8915 48.907 48.2632 50.6629 47.324 52.2452L49.0439 53.266ZM51.151 47.3688C51.3152 46.2142 51.3993 45.0493 51.4026 43.8827L49.4026 43.877C49.3995 44.9513 49.3221 46.0241 49.1709 47.0871L51.151 47.3688ZM51.4026 43.8799V30.5775H49.4026V43.8799H51.4026ZM51.4021 30.6069C51.4806 27.9453 51.0998 25.29 50.2771 22.7628L48.3753 23.382C49.1267 25.6899 49.4747 28.1158 49.403 30.548L51.4021 30.6069ZM50.273 22.7505C49.8337 21.4587 49.1624 20.2608 48.2928 19.2185L46.7571 20.4998C47.4682 21.3521 48.0187 22.3336 48.3794 23.3944L50.273 22.7505ZM48.2942 19.2202C48.0113 18.8796 47.7016 18.5628 47.3682 18.273L46.0562 19.7825C46.3077 20.0011 46.5416 20.2404 46.7557 20.4981L48.2942 19.2202ZM47.3398 18.2493C44.6034 16.0432 41.1516 14.9687 37.6709 15.2446L37.8289 17.2383C40.7952 17.0032 43.7423 17.918 46.0846 19.8063L47.3398 18.2493ZM37.7499 15.2415H30.3439V17.2415H37.7499V15.2415ZM30.3638 15.2417C28.9113 15.2127 27.5345 14.5342 26.6026 13.3704L25.0415 14.6205C26.3388 16.2407 28.2697 17.2003 30.3239 17.2413L30.3638 15.2417ZM26.6391 13.4189L24.2448 10.0259L22.6107 11.179L25.005 14.5721L26.6391 13.4189ZM24.216 9.9872C22.8977 8.29812 20.8823 7.32181 18.7549 7.35558L18.7867 9.35533C20.2766 9.33167 21.7005 10.0149 22.6394 11.2178L24.216 9.9872ZM18.7708 7.35546H13.6307V9.35546H18.7708V7.35546ZM13.6307 7.35546C8.80792 7.35546 5.31451 8.8168 3.06743 11.6948C0.860712 14.5211 2.08616e-06 18.5371 2.08616e-06 23.3431H2C2 18.7116 2.84169 15.2338 4.64384 12.9256C6.40563 10.6692 9.22756 9.35546 13.6307 9.35546V7.35546ZM2.08616e-06 23.3431V33.5446H2V23.3431H2.08616e-06ZM5.44786e-05 33.5343C-0.000250399 33.5641 0.000728369 33.5937 0.00293523 33.623L1.99728 33.4727C1.99932 33.4998 2.00023 33.5272 1.99995 33.5548L5.44786e-05 33.5343Z" fill="url(#paint1_linear_28_27)" mask="url(#path-3-outside-1_28_27)"/>
</g>
<g filter="url(#filter2_bd_28_27)">
<path d="M38.1942 47.8494H13.3283C12.2 47.8494 11.2854 46.9138 11.2854 45.7597C11.2854 44.6055 12.2 43.6699 13.3283 43.6699H38.3919C39.0004 43.677 39.5701 43.9767 39.9296 44.4789C40.2421 44.8525 40.3998 45.3363 40.3689 45.8271C40.3518 46.3854 40.1169 46.9136 39.7165 47.2935C39.3162 47.6735 38.7838 47.8737 38.2382 47.8494H38.1942Z" fill="url(#paint2_linear_28_27)"/>
<path d="M39.767 44.5953L39.7714 44.6014L39.7762 44.6072C40.0555 44.9411 40.197 45.3743 40.1693 45.8145L40.1692 45.8145L40.169 45.8209C40.1535 46.3273 39.9404 46.8053 39.5789 47.1485C39.2174 47.4915 38.7378 47.6714 38.2471 47.6496L38.2471 47.6494H38.2382H38.1942H13.3283C12.3147 47.6494 11.4854 46.8076 11.4854 45.7597C11.4854 44.7117 12.3147 43.8699 13.3283 43.8699H38.3908C38.934 43.8766 39.4441 44.1443 39.767 44.5953Z" stroke="url(#paint3_linear_28_27)" stroke-width="0.4"/>
</g>
<defs>
<filter id="filter0_f_28_27" x="9.70276" y="-4.12854" width="60.1492" height="63.042" filterUnits="userSpaceOnUse" color-interpolation-filters="sRGB">
<feFlood flood-opacity="0" result="BackgroundImageFix"/>
<feBlend mode="normal" in="SourceGraphic" in2="BackgroundImageFix" result="shape"/>
<feGaussianBlur stdDeviation="7.5" result="effect1_foregroundBlur_28_27"/>
</filter>
<filter id="filter1_b_28_27" x="-15" y="-7.64526" width="81.4122" height="82.6453" filterUnits="userSpaceOnUse" color-interpolation-filters="sRGB">
<feFlood flood-opacity="0" result="BackgroundImageFix"/>
<feGaussianBlur in="BackgroundImage" stdDeviation="7.5"/>
<feComposite in2="SourceAlpha" operator="in" result="effect1_backgroundBlur_28_27"/>
<feBlend mode="normal" in="SourceGraphic" in2="effect1_backgroundBlur_28_27" result="shape"/>
</filter>
<filter id="filter2_bd_28_27" x="-3.7146" y="28.6699" width="59.0873" height="34.1814" filterUnits="userSpaceOnUse" color-interpolation-filters="sRGB">
<feFlood flood-opacity="0" result="BackgroundImageFix"/>
<feGaussianBlur in="BackgroundImage" stdDeviation="7.5"/>
<feComposite in2="SourceAlpha" operator="in" result="effect1_backgroundBlur_28_27"/>
<feColorMatrix in="SourceAlpha" type="matrix" values="0 0 0 0 0 0 0 0 0 0 0 0 0 0 0 0 0 0 127 0" result="hardAlpha"/>
<feOffset dx="5" dy="5"/>
<feGaussianBlur stdDeviation="5"/>
<feColorMatrix type="matrix" values="0 0 0 0 0.976471 0 0 0 0 0.435294 0 0 0 0 0.352941 0 0 0 0.5 0"/>
<feBlend mode="normal" in2="effect1_backgroundBlur_28_27" result="effect2_dropShadow_28_27"/>
<feBlend mode="normal" in="SourceGraphic" in2="effect2_dropShadow_28_27" result="shape"/>
</filter>
<linearGradient id="paint0_linear_28_27" x1="27.6441" y1="13.7201" x2="45.0156" y2="74.3443" gradientUnits="userSpaceOnUse">
<stop stop-color="#FFA78F"/>
<stop offset="1" stop-color="#F23E2C"/>
</linearGradient>
<linearGradient id="paint1_linear_28_27" x1="8.86561" y1="14.255" x2="41.3307" y2="53.4848" gradientUnits="userSpaceOnUse">
<stop stop-color="white" stop-opacity="0.25"/>
<stop offset="1" stop-color="white" stop-opacity="0"/>
</linearGradient>
<linearGradient id="paint2_linear_28_27" x1="38.3105" y1="44.425" x2="7.46235" y2="51.4215" gradientUnits="userSpaceOnUse">
<stop stop-color="white"/>
<stop offset="1" stop-color="white" stop-opacity="0.2"/>
</linearGradient>
<linearGradient id="paint3_linear_28_27" x1="15.9156" y1="44.1571" x2="16.5406" y2="49.5417" gradientUnits="userSpaceOnUse">
<stop stop-color="white" stop-opacity="0.25"/>
<stop offset="1" stop-color="white" stop-opacity="0"/>
</linearGradient>
</defs>
</svg>
