<svg width="314" height="48" viewBox="0 0 314 48" fill="none" xmlns="http://www.w3.org/2000/svg">
<rect width="314" height="48" fill="#DB4437"/>
<path d="M118.45 23.6505V27.5329H123.841C123.34 30 121.239 31.4175 118.45 31.4175C116.889 31.396 115.399 30.7608 114.303 29.6493C113.207 28.5378 112.592 27.0393 112.592 25.4781C112.592 23.9168 113.207 22.4184 114.303 21.3069C115.399 20.1953 116.889 19.5601 118.45 19.5386C119.801 19.537 121.109 20.0056 122.152 20.8639L125.077 17.9389C123.856 16.8654 122.394 16.104 120.814 15.7201C119.235 15.3361 117.586 15.3411 116.009 15.7346C114.432 16.1281 112.974 16.8983 111.76 17.9792C110.546 19.0601 109.613 20.4194 109.04 21.9404C108.467 23.4614 108.272 25.0987 108.471 26.7118C108.67 28.3249 109.257 29.8657 110.182 31.2018C111.108 32.538 112.343 33.6297 113.784 34.3833C115.224 35.1368 116.825 35.5297 118.45 35.5283C123.476 35.5283 128.046 31.8731 128.046 25.4775C128.038 24.8617 127.962 24.2487 127.821 23.6494L118.45 23.6505Z" fill="white"/>
<path d="M156.109 24.8477C156.109 26.8506 155.545 28.4194 154.417 29.5542C153.296 30.6821 151.734 31.2461 149.731 31.2461C147.612 31.2461 145.931 30.5557 144.687 29.1748C143.449 27.7871 142.831 25.9072 142.831 23.5352C142.831 21.2041 143.446 19.3584 144.676 17.998C145.914 16.6377 147.588 15.9575 149.701 15.9575C151.348 15.9575 152.743 16.4053 153.884 17.3008C155.033 18.1963 155.737 19.3823 155.997 20.8589H153.638C153.365 19.9429 152.883 19.2319 152.192 18.7261C151.502 18.2202 150.675 17.9673 149.711 17.9673C148.296 17.9673 147.185 18.4595 146.378 19.4438C145.579 20.4214 145.179 21.7783 145.179 23.5146C145.179 25.2852 145.589 26.6831 146.409 27.7085C147.229 28.7271 148.344 29.2363 149.752 29.2363C150.948 29.2363 151.926 28.8877 152.685 28.1904C153.443 27.4863 153.83 26.5737 153.843 25.4526V25.1963H150.019V23.3403H156.109V24.8477ZM166.445 29.708C165.516 30.7061 164.275 31.2051 162.723 31.2051C161.171 31.2051 159.931 30.7061 159.001 29.708C158.071 28.7031 157.606 27.3359 157.606 25.6064C157.606 23.8838 158.071 22.5234 159.001 21.5254C159.931 20.5205 161.171 20.0181 162.723 20.0181C164.275 20.0181 165.516 20.5205 166.445 21.5254C167.375 22.5234 167.84 23.8838 167.84 25.6064C167.84 27.3359 167.375 28.7031 166.445 29.708ZM162.723 29.3799C163.605 29.3799 164.302 29.0483 164.815 28.3853C165.328 27.7222 165.584 26.7959 165.584 25.6064C165.584 24.4238 165.324 23.501 164.805 22.8379C164.292 22.1748 163.598 21.8433 162.723 21.8433C161.848 21.8433 161.151 22.1748 160.631 22.8379C160.119 23.501 159.862 24.4238 159.862 25.6064C159.862 26.7959 160.119 27.7222 160.631 28.3853C161.151 29.0483 161.848 29.3799 162.723 29.3799ZM177.909 29.708C176.979 30.7061 175.739 31.2051 174.187 31.2051C172.635 31.2051 171.395 30.7061 170.465 29.708C169.535 28.7031 169.07 27.3359 169.07 25.6064C169.07 23.8838 169.535 22.5234 170.465 21.5254C171.395 20.5205 172.635 20.0181 174.187 20.0181C175.739 20.0181 176.979 20.5205 177.909 21.5254C178.839 22.5234 179.304 23.8838 179.304 25.6064C179.304 27.3359 178.839 28.7031 177.909 29.708ZM174.187 29.3799C175.069 29.3799 175.766 29.0483 176.279 28.3853C176.792 27.7222 177.048 26.7959 177.048 25.6064C177.048 24.4238 176.788 23.501 176.269 22.8379C175.756 22.1748 175.062 21.8433 174.187 21.8433C173.312 21.8433 172.615 22.1748 172.095 22.8379C171.583 23.501 171.326 24.4238 171.326 25.6064C171.326 26.7959 171.583 27.7222 172.095 28.3853C172.615 29.0483 173.312 29.3799 174.187 29.3799ZM185.61 29.2056C186.478 29.2056 187.172 28.8774 187.691 28.2212C188.218 27.5649 188.481 26.6831 188.481 25.5757C188.481 24.4683 188.218 23.5796 187.691 22.9097C187.172 22.2397 186.478 21.9048 185.61 21.9048C184.755 21.9048 184.072 22.2363 183.559 22.8994C183.053 23.5625 182.8 24.4546 182.8 25.5757C182.8 26.6968 183.053 27.582 183.559 28.2314C184.072 28.8809 184.755 29.2056 185.61 29.2056ZM185.63 35.0605C184.373 35.0605 183.306 34.7598 182.431 34.1582C181.563 33.5566 181.061 32.7842 180.924 31.8408H183.149C183.306 32.292 183.614 32.6543 184.072 32.9277C184.537 33.2012 185.083 33.3379 185.712 33.3379C186.567 33.3379 187.24 33.1123 187.732 32.6611C188.225 32.2168 188.471 31.6221 188.471 30.877V29.103H188.43C188.122 29.6978 187.664 30.1694 187.056 30.5181C186.454 30.8667 185.774 31.041 185.015 31.041C183.655 31.041 182.568 30.5488 181.754 29.5645C180.941 28.5732 180.534 27.2402 180.534 25.5654C180.534 23.8701 180.941 22.5269 181.754 21.5356C182.575 20.5376 183.679 20.0386 185.066 20.0386C185.825 20.0386 186.505 20.2197 187.107 20.582C187.708 20.9375 188.173 21.4297 188.501 22.0586H188.542V20.2129H190.696V30.8052C190.696 32.0903 190.234 33.1191 189.312 33.8916C188.396 34.6709 187.168 35.0605 185.63 35.0605ZM192.972 31V16.2036H195.187V31H192.972ZM203.852 22.5815C203.366 22.062 202.741 21.8022 201.975 21.8022C201.209 21.8022 200.574 22.0654 200.068 22.5918C199.562 23.1113 199.282 23.7847 199.227 24.6118H204.621C204.593 23.7778 204.337 23.1011 203.852 22.5815ZM204.61 27.8315H206.712C206.555 28.8228 206.049 29.6328 205.195 30.2617C204.34 30.8906 203.298 31.2051 202.067 31.2051C200.488 31.2051 199.244 30.7095 198.335 29.7183C197.433 28.7202 196.981 27.3667 196.981 25.6577C196.981 23.9624 197.433 22.5986 198.335 21.5664C199.244 20.5342 200.458 20.0181 201.975 20.0181C203.465 20.0181 204.648 20.5068 205.523 21.4844C206.398 22.4551 206.835 23.7607 206.835 25.4014V26.1602H199.217V26.2935C199.217 27.2368 199.48 27.9922 200.006 28.5596C200.533 29.127 201.237 29.4106 202.119 29.4106C202.741 29.4106 203.274 29.2671 203.718 28.98C204.163 28.6929 204.46 28.3101 204.61 27.8315Z" fill="white"/>
</svg>
