<svg width="63" height="63" viewBox="0 0 63 63" fill="none" xmlns="http://www.w3.org/2000/svg">
<path d="M30.4863 37.4177C30.2089 38.0185 30.231 38.7253 30.5435 39.3071L34.984 47.301C35.3598 47.9787 35.323 48.8243 34.8907 49.4647C34.4754 50.1163 33.7402 50.457 33.002 50.3456L24.2758 49.1355C23.9714 49.0905 23.6618 49.1224 23.369 49.2247L22.9204 49.3965C22.7732 49.4804 22.639 49.5909 22.5277 49.7242L16.5943 56.5695C16.2981 56.8997 15.9111 57.1248 15.4852 57.211C14.4376 57.3915 13.4433 56.6609 13.2449 55.5645L11.7495 46.4428C11.6306 45.781 11.2133 45.2216 10.6307 44.9423L2.54069 41.1439C1.86392 40.8257 1.42459 40.127 1.4135 39.349C1.39639 38.5753 1.78819 37.8558 2.4327 37.4809L10.2256 33.0761C10.8278 32.7686 11.2387 32.1581 11.3149 31.459L12.2312 22.2611C12.257 22.0542 12.3124 21.8517 12.3994 21.6647L12.5061 21.4859C12.5526 21.3656 12.616 21.2566 12.6942 21.1577L12.8506 21.019L13.0898 20.7895L13.7867 20.5226C14.4327 20.3521 15.1165 20.5336 15.6056 21.0083L21.9765 27.3763C22.4387 27.8436 23.0905 28.0413 23.718 27.9094L32.381 26.0127C33.1125 25.8508 33.8686 26.1327 34.3401 26.7403C34.7989 27.3547 34.8773 28.1916 34.5418 28.8895L30.4863 37.4177Z" fill="url(#paint0_linear_28_12)"/>
<g opacity="0.5" filter="url(#filter0_f_28_12)">
<path d="M22.8561 32.7919C19.0673 32.7919 15.9923 36.0232 15.9923 40.0031C15.9923 43.9845 19.0673 47.2144 22.8561 47.2144C26.6518 47.2144 29.7199 43.9845 29.7199 40.0031C29.7199 36.0232 26.6518 32.7919 22.8561 32.7919Z" fill="#FF3D22"/>
</g>
<g filter="url(#filter1_b_28_12)">
<path d="M50.6907 36.074C49.9917 36.4979 49.5354 37.2575 49.4693 38.103L48.7156 49.8313C48.6509 50.8252 48.0388 51.6866 47.1499 52.0362C46.2713 52.4103 45.2674 52.218 44.5669 51.5482L36.214 43.7431C35.9245 43.4678 35.5773 43.2695 35.2003 43.1579L34.6121 43.0026C34.4004 42.9806 34.1844 42.9963 33.977 43.0531L23.0963 45.8073C22.561 45.9326 22.0015 45.8795 21.4953 45.6513C20.2715 45.0567 19.7218 43.5443 20.2568 42.2431L24.8717 31.5342C25.1956 30.7494 25.1363 29.8489 24.7133 29.119L18.7848 19.069C18.2891 18.2279 18.3012 17.1644 18.8172 16.3382C19.324 15.512 20.2239 15.049 21.1557 15.1374L32.3358 16.341C33.1775 16.4687 34.0235 16.1345 34.5779 15.4566L41.7798 6.473C41.9472 6.27477 42.1428 6.10337 42.3612 5.97193L42.5947 5.86387C42.725 5.77223 42.8657 5.70512 43.015 5.65969L43.2734 5.63093L43.6805 5.56872L44.5943 5.80995C45.3891 6.11432 45.9848 6.81703 46.177 7.68233L48.5553 19.1466C48.7242 19.9839 49.2754 20.6797 50.0246 21.0108L60.4183 25.5026C61.2971 25.8801 61.9008 26.7425 61.9843 27.7342C62.0499 28.7237 61.5647 29.6622 60.7386 30.1448L50.6907 36.074Z" fill="#FFAC95" fill-opacity="0.4"/>
<path d="M49.2117 49.8746L49.2118 49.8742L49.965 38.1529C49.9651 38.1517 49.9652 38.1505 49.9653 38.1493C50.0202 37.4606 50.3921 36.8477 50.9506 36.5079C50.9513 36.5074 50.9521 36.507 50.9529 36.5065L60.9939 30.5814C60.9942 30.5812 60.9944 30.5811 60.9947 30.581C61.9841 30.0027 62.5583 28.8846 62.4804 27.7109L62.4805 27.7109L62.4797 27.7018C62.3811 26.531 61.6662 25.4967 60.6053 25.0408C60.6051 25.0407 60.6049 25.0406 60.6047 25.0405L50.2158 20.5508C50.2152 20.5505 50.2146 20.5503 50.2141 20.55C49.623 20.2881 49.1793 19.7343 49.0424 19.0558L49.0419 19.0531L46.6636 7.58885L46.6636 7.58884L46.662 7.58179C46.4337 6.55403 45.7227 5.70813 44.762 5.34024C44.7451 5.33379 44.728 5.32825 44.7106 5.32366L43.7968 5.08244C43.7312 5.0651 43.663 5.0614 43.5964 5.07158L43.1991 5.13228L42.9506 5.15994C42.9208 5.16326 42.8914 5.1693 42.8628 5.17801C42.6809 5.23334 42.5067 5.31392 42.3435 5.42289L42.1466 5.51402C42.1307 5.52135 42.1153 5.52955 42.1003 5.53856C41.8325 5.69978 41.5973 5.90712 41.3989 6.14202L41.3988 6.14192L41.391 6.1516L34.1921 15.1315C34.1916 15.1321 34.1911 15.1326 34.1907 15.1332C33.74 15.6831 33.0622 15.9444 32.3997 15.8439C32.3926 15.8428 32.3855 15.8419 32.3784 15.8411L21.1983 14.6375L21.1983 14.6374L21.1921 14.6368C20.0659 14.53 18.9933 15.0899 18.3942 16.0652C17.7821 17.0466 17.7652 18.3122 18.359 19.3198L18.3591 19.32L24.2856 29.3665C24.286 29.3671 24.2863 29.3677 24.2866 29.3683C24.6264 29.9557 24.6773 30.6872 24.4136 31.3292C24.4132 31.3303 24.4127 31.3314 24.4122 31.3325L19.8003 42.0344L19.8003 42.0344L19.7971 42.042C19.1674 43.5734 19.8049 45.3833 21.2875 46.1036L21.3007 46.1098C21.9083 46.3837 22.579 46.4468 23.2179 46.2972L23.2179 46.2973L23.2263 46.2952L34.107 43.541L34.1071 43.541L34.1161 43.5386C34.2516 43.5015 34.3942 43.4887 34.5362 43.4995L35.0763 43.6421C35.3758 43.7319 35.6495 43.8894 35.8774 44.106L35.8806 44.109L44.2292 51.9101C44.23 51.9108 44.2307 51.9116 44.2315 51.9123C45.0757 52.7178 46.287 52.9502 47.3447 52.5027C48.4118 52.0802 49.1352 51.0511 49.2117 49.8746Z" stroke="url(#paint1_linear_28_12)" stroke-linecap="round" stroke-linejoin="round"/>
</g>
<defs>
<filter id="filter0_f_28_12" x="-4.00769" y="12.7919" width="53.7277" height="54.4225" filterUnits="userSpaceOnUse" color-interpolation-filters="sRGB">
<feFlood flood-opacity="0" result="BackgroundImageFix"/>
<feBlend mode="normal" in="SourceGraphic" in2="BackgroundImageFix" result="shape"/>
<feGaussianBlur stdDeviation="10" result="effect1_foregroundBlur_28_12"/>
</filter>
<filter id="filter1_b_28_12" x="-6.573" y="-19.4368" width="93.5576" height="96.6671" filterUnits="userSpaceOnUse" color-interpolation-filters="sRGB">
<feFlood flood-opacity="0" result="BackgroundImageFix"/>
<feGaussianBlur in="BackgroundImage" stdDeviation="12"/>
<feComposite in2="SourceAlpha" operator="in" result="effect1_backgroundBlur_28_12"/>
<feBlend mode="normal" in="SourceGraphic" in2="effect1_backgroundBlur_28_12" result="shape"/>
</filter>
<linearGradient id="paint0_linear_28_12" x1="3.69318" y1="34.6176" x2="41.725" y2="68.5344" gradientUnits="userSpaceOnUse">
<stop stop-color="#FFA78F"/>
<stop offset="1" stop-color="#F23E2C"/>
</linearGradient>
<linearGradient id="paint1_linear_28_12" x1="28.2901" y1="6.87218" x2="47.2701" y2="48.6533" gradientUnits="userSpaceOnUse">
<stop stop-color="white" stop-opacity="0.25"/>
<stop offset="1" stop-color="white" stop-opacity="0"/>
</linearGradient>
</defs>
</svg>
