<svg width="33" height="33" viewBox="0 0 33 33" fill="none" xmlns="http://www.w3.org/2000/svg">
<path fill-rule="evenodd" clip-rule="evenodd" d="M0.0712891 6.70293C0.0712891 3.04038 3.04038 0.0712891 6.70293 0.0712891L26.1308 0.0712891C29.7934 0.0712891 32.7625 3.04038 32.7625 6.70293L32.7625 26.1308C32.7625 29.7934 29.7934 32.7625 26.1308 32.7625L6.70293 32.7625C3.04038 32.7625 0.0712891 29.7934 0.0712891 26.1308L0.0712891 6.70293ZM6.70293 2.87339C4.58793 2.87339 2.87339 4.58793 2.87339 6.70293L2.87339 26.1308C2.87339 28.2458 4.58793 29.9604 6.70293 29.9604L26.1308 29.9604C28.2458 29.9604 29.9604 28.2458 29.9604 26.1308L29.9604 6.70293C29.9604 4.58793 28.2458 2.87339 26.1308 2.87339L6.70293 2.87339Z" fill="#28CD6A"/>
<path fill-rule="evenodd" clip-rule="evenodd" d="M23.0244 11.7031C23.5644 12.2573 23.5529 13.1443 22.9987 13.6843L15.3298 21.1566C15.0612 21.4183 14.6989 21.5614 14.324 21.5539C13.9491 21.5464 13.5929 21.3889 13.335 21.1167L9.79546 17.3805C9.26329 16.8188 9.28726 15.932 9.84899 15.3999C10.4107 14.8677 11.2975 14.8917 11.8296 15.4534L14.392 18.1581L21.0432 11.6774C21.5974 11.1374 22.4844 11.1489 23.0244 11.7031Z" fill="#28CD6A"/>
</svg>
